<?xml version="1.0" encoding="UTF-8"?>
<!DOCTYPE svg PUBLIC "-//W3C//DTD SVG 1.1//EN" "http://www.w3.org/Graphics/SVG/1.1/DTD/svg11.dtd">
<svg xmlns="http://www.w3.org/2000/svg" version="1.1" width="512px" height="512px" style="shape-rendering:geometricPrecision; text-rendering:geometricPrecision; image-rendering:optimizeQuality; fill-rule:evenodd; clip-rule:evenodd" xmlns:xlink="http://www.w3.org/1999/xlink">
<g><path style="opacity:0.997" fill="#000000" d="M 511.5,116.5 C 511.5,205.5 511.5,294.5 511.5,383.5C 490.833,383.5 470.167,383.5 449.5,383.5C 449.5,403.5 449.5,423.5 449.5,443.5C 320.167,443.5 190.833,443.5 61.5,443.5C 61.5,423.5 61.5,403.5 61.5,383.5C 40.8333,383.5 20.1667,383.5 -0.5,383.5C -0.5,283.167 -0.5,182.833 -0.5,82.5C 29.5,82.5 59.5,82.5 89.5,82.5C 89.5,109.167 89.5,135.833 89.5,162.5C 99.5,162.5 109.5,162.5 119.5,162.5C 119.5,149.167 119.5,135.833 119.5,122.5C 170.167,122.5 220.833,122.5 271.5,122.5C 271.5,135.833 271.5,149.167 271.5,162.5C 281.5,162.5 291.5,162.5 301.5,162.5C 301.333,147.163 301.5,131.83 302,116.5C 308.167,90.3333 324.333,74.1667 350.5,68C 387.833,67.3333 425.167,67.3333 462.5,68C 488.681,74.3479 505.014,90.5146 511.5,116.5 Z M 361.5,97.5 C 393.865,97.0521 426.198,97.5521 458.5,99C 472.619,103.722 480.119,113.555 481,128.5C 481.5,203.499 481.667,278.499 481.5,353.5C 330.833,353.5 180.167,353.5 29.5,353.5C 29.5,273.167 29.5,192.833 29.5,112.5C 39.5,112.5 49.5,112.5 59.5,112.5C 59.5,177.833 59.5,243.167 59.5,308.5C 150.167,308.5 240.833,308.5 331.5,308.5C 331.03,245.808 331.53,183.142 333,120.5C 337.684,106.755 347.184,99.0883 361.5,97.5 Z M 149.5,152.5 C 180.167,152.5 210.833,152.5 241.5,152.5C 241.5,169.167 241.5,185.833 241.5,202.5C 210.833,202.5 180.167,202.5 149.5,202.5C 149.5,185.833 149.5,169.167 149.5,152.5 Z M 391.5,157.5 C 401.5,157.5 411.5,157.5 421.5,157.5C 421.5,167.5 421.5,177.5 421.5,187.5C 411.5,187.5 401.5,187.5 391.5,187.5C 391.5,177.5 391.5,167.5 391.5,157.5 Z M 89.5,192.5 C 99.5,192.5 109.5,192.5 119.5,192.5C 119.5,205.833 119.5,219.167 119.5,232.5C 170.167,232.5 220.833,232.5 271.5,232.5C 271.5,219.167 271.5,205.833 271.5,192.5C 281.5,192.5 291.5,192.5 301.5,192.5C 301.5,221.167 301.5,249.833 301.5,278.5C 230.833,278.5 160.167,278.5 89.5,278.5C 89.5,249.833 89.5,221.167 89.5,192.5 Z M 92.5,383.5 C 201.167,383.5 309.833,383.5 418.5,383.5C 418.5,393.5 418.5,403.5 418.5,413.5C 309.833,413.5 201.167,413.5 92.5,413.5C 92.5,403.5 92.5,393.5 92.5,383.5 Z"/></g>
<g><path style="opacity:1" fill="#000000" d="M 361.5,127.5 C 391.5,127.5 421.5,127.5 451.5,127.5C 451.5,157.5 451.5,187.5 451.5,217.5C 421.5,217.5 391.5,217.5 361.5,217.5C 361.5,187.5 361.5,157.5 361.5,127.5 Z M 391.5,157.5 C 391.5,167.5 391.5,177.5 391.5,187.5C 401.5,187.5 411.5,187.5 421.5,187.5C 421.5,177.5 421.5,167.5 421.5,157.5C 411.5,157.5 401.5,157.5 391.5,157.5 Z"/></g>
<g><path style="opacity:1" fill="#000000" d="M 361.5,247.5 C 371.5,247.5 381.5,247.5 391.5,247.5C 391.5,257.5 391.5,267.5 391.5,277.5C 381.5,277.5 371.5,277.5 361.5,277.5C 361.5,267.5 361.5,257.5 361.5,247.5 Z"/></g>
<g><path style="opacity:1" fill="#000000" d="M 421.5,247.5 C 431.5,247.5 441.5,247.5 451.5,247.5C 451.5,257.5 451.5,267.5 451.5,277.5C 441.5,277.5 431.5,277.5 421.5,277.5C 421.5,267.5 421.5,257.5 421.5,247.5 Z"/></g>
</svg>
