<?xml version="1.0" encoding="UTF-8"?>
<!DOCTYPE svg PUBLIC "-//W3C//DTD SVG 1.1//EN" "http://www.w3.org/Graphics/SVG/1.1/DTD/svg11.dtd">
<svg xmlns="http://www.w3.org/2000/svg" version="1.1" width="512px" height="512px" style="shape-rendering:geometricPrecision; text-rendering:geometricPrecision; image-rendering:optimizeQuality; fill-rule:evenodd; clip-rule:evenodd" xmlns:xlink="http://www.w3.org/1999/xlink">
<g><path style="opacity:0.978" fill="#000000" d="M 511.5,195.5 C 511.5,255.167 511.5,314.833 511.5,374.5C 503.909,406.422 483.909,425.422 451.5,431.5C 451.5,451.833 451.5,472.167 451.5,492.5C 421.5,492.5 391.5,492.5 361.5,492.5C 361.5,472.167 361.5,451.833 361.5,431.5C 325.833,431.5 290.167,431.5 254.5,431.5C 254.5,451.833 254.5,472.167 254.5,492.5C 224.5,492.5 194.5,492.5 164.5,492.5C 164.667,471.164 164.5,449.831 164,428.5C 139.17,418.672 124.17,400.672 119,374.5C 118.5,360.171 118.333,345.837 118.5,331.5C 94.5,331.5 70.5,331.5 46.5,331.5C 46.5,321.5 46.5,311.5 46.5,301.5C 30.8333,301.5 15.1667,301.5 -0.5,301.5C -0.5,291.167 -0.5,280.833 -0.5,270.5C 15.1667,270.5 30.8333,270.5 46.5,270.5C 46.5,260.5 46.5,250.5 46.5,240.5C 70.5,240.5 94.5,240.5 118.5,240.5C 118.333,225.496 118.5,210.496 119,195.5C 124.881,169.287 140.381,151.453 165.5,142C 178.994,138.979 192.661,137.812 206.5,138.5C 206.5,128.833 206.5,119.167 206.5,109.5C 183.128,106.297 168.295,93.2975 162,70.5C 161.5,53.1699 161.333,35.8365 161.5,18.5C 233.833,18.5 306.167,18.5 378.5,18.5C 378.667,35.8365 378.5,53.1699 378,70.5C 371.705,93.2975 356.872,106.297 333.5,109.5C 333.5,119.167 333.5,128.833 333.5,138.5C 371.501,138.333 409.501,138.5 447.5,139C 481.542,143.547 502.875,162.38 511.5,195.5 Z M 191.5,49.5 C 243.833,49.5 296.167,49.5 348.5,49.5C 348.719,55.9773 347.886,62.3106 346,68.5C 343.382,73.1163 339.549,76.283 334.5,78C 291.5,78.6667 248.5,78.6667 205.5,78C 200.451,76.283 196.618,73.1163 194,68.5C 192.114,62.3106 191.281,55.9773 191.5,49.5 Z M 236.5,109.5 C 258.833,109.5 281.167,109.5 303.5,109.5C 303.5,119.167 303.5,128.833 303.5,138.5C 281.167,138.5 258.833,138.5 236.5,138.5C 236.5,128.833 236.5,119.167 236.5,109.5 Z M 184.5,169.5 C 253.5,169.5 322.5,169.5 391.5,169.5C 391.5,246.5 391.5,323.5 391.5,400.5C 320.833,400.667 250.166,400.5 179.5,400C 160.461,394.774 150.295,382.274 149,362.5C 148.333,310.833 148.333,259.167 149,207.5C 151.421,185.916 163.254,173.249 184.5,169.5 Z M 421.5,169.5 C 432.953,168.949 444.287,169.782 455.5,172C 471.231,178.626 479.731,190.459 481,207.5C 481.5,228.497 481.667,249.497 481.5,270.5C 471.5,270.5 461.5,270.5 451.5,270.5C 451.5,280.833 451.5,291.167 451.5,301.5C 461.5,301.5 471.5,301.5 481.5,301.5C 481.901,324.862 481.401,348.196 480,371.5C 476.332,385.167 467.832,394.334 454.5,399C 443.564,400.406 432.564,400.906 421.5,400.5C 421.5,323.5 421.5,246.5 421.5,169.5 Z M 76.5,271.5 C 90.5,271.5 104.5,271.5 118.5,271.5C 118.5,281.167 118.5,290.833 118.5,300.5C 104.5,300.5 90.5,300.5 76.5,300.5C 76.5,290.833 76.5,281.167 76.5,271.5 Z M 194.5,432.5 C 204.5,432.5 214.5,432.5 224.5,432.5C 224.5,442.167 224.5,451.833 224.5,461.5C 214.5,461.5 204.5,461.5 194.5,461.5C 194.5,451.833 194.5,442.167 194.5,432.5 Z M 391.5,432.5 C 401.5,432.5 411.5,432.5 421.5,432.5C 421.5,442.167 421.5,451.833 421.5,461.5C 411.5,461.5 401.5,461.5 391.5,461.5C 391.5,451.833 391.5,442.167 391.5,432.5 Z"/></g>
<g><path style="opacity:0.968" fill="#000000" d="M 205.5,209.5 C 248.5,209.5 291.5,209.5 334.5,209.5C 334.5,219.833 334.5,230.167 334.5,240.5C 291.5,240.5 248.5,240.5 205.5,240.5C 205.5,230.167 205.5,219.833 205.5,209.5 Z"/></g>
<g><path style="opacity:0.968" fill="#000000" d="M 205.5,269.5 C 248.5,269.5 291.5,269.5 334.5,269.5C 334.5,279.833 334.5,290.167 334.5,300.5C 291.5,300.5 248.5,300.5 205.5,300.5C 205.5,290.167 205.5,279.833 205.5,269.5 Z"/></g>
<g><path style="opacity:0.968" fill="#000000" d="M 205.5,329.5 C 248.5,329.5 291.5,329.5 334.5,329.5C 334.5,339.833 334.5,350.167 334.5,360.5C 291.5,360.5 248.5,360.5 205.5,360.5C 205.5,350.167 205.5,339.833 205.5,329.5 Z"/></g>
</svg>
